<svg width="35" height="35" viewBox="0 0 35 35" fill="none" xmlns="http://www.w3.org/2000/svg">
<path d="M34.1268 17.2693C34.1268 26.3455 26.6912 33.7032 17.5189 33.7032C8.34653 33.7032 0.910889 26.3455 0.910889 17.2693C0.910889 8.19317 8.34653 0.83548 17.5189 0.83548C26.6912 0.83548 34.1268 8.19317 34.1268 17.2693V17.2693Z" fill="url(#paint0_linear)"/>
<path d="M17.3491 0C7.76698 0 0 7.83521 0 17.5C0 27.1648 7.76698 35 17.3491 35C26.9313 35 34.6983 27.1648 34.6983 17.5C34.6983 7.83521 26.9313 0 17.3491 0ZM16.6413 1.69671C17.5748 1.68821 19.0083 1.70448 20.0143 1.85985C21.624 2.10845 22.2426 2.39952 24.265 3.18676C26.2873 3.974 27.3413 5.2398 28.7034 6.42065C30.0654 7.60151 31.6544 10.8323 32.0258 11.6195C32.3973 12.4068 33.0995 15.7417 33.1201 16.7568C33.1407 17.7719 32.9545 19.8436 32.7481 20.9623C32.5418 22.081 31.6312 24.09 31.0327 25.2294C30.4342 26.3689 29.1367 28.0065 29.1367 28.0065C29.1367 28.0065 29.486 26.9717 29.6098 26.143C29.7336 25.3144 29.5072 23.6979 28.9706 22.7243C28.4341 21.7506 27.0932 19.9472 25.2978 19.0771C23.5024 18.207 21.6653 18.4157 19.1476 18.6021C16.63 18.7886 14.8764 18.7658 13.4524 18.2686C12.0285 17.7714 11.4703 16.1752 11.4084 15.4915C11.3465 14.8079 11.5131 14.4997 11.802 14.0232C12.0909 13.5467 11.8645 13.4229 11.7406 13.3815C11.6168 13.3401 11.4713 13.0485 11.4301 12.5513C11.3888 12.0541 11.4698 11.2062 11.4698 11.2062C11.4698 11.2062 11.6364 11.5367 11.719 12.6347C11.8015 13.7326 13.1837 14.1247 13.6583 14.1247C14.1329 14.1247 15.0002 14.1879 16.1971 13.2764C17.394 12.3648 18.527 13.2981 19.0429 13.4431C19.5588 13.5881 21.0446 14.6426 22.0765 15.8649C23.1083 17.0872 23.4808 16.7573 24.265 16.8402C25.0491 16.923 24.9893 17.1711 25.8973 17.1918C26.8053 17.2126 27.3202 16.4051 27.3202 16.4051C27.3202 16.4051 27.9166 19.0351 28.1436 19.8638C28.3706 20.6925 29.4865 22.5787 30.8485 22.6409C32.2105 22.703 32.4159 21.2741 32.4159 21.2741C32.4159 21.2741 31.8184 21.9344 30.993 21.8723C30.1675 21.8101 29.8157 20.9623 29.8157 20.9623C29.8157 20.9623 30.621 21.2125 30.9099 21.2125C31.1988 21.2125 31.7772 21.026 32.2931 20.6324C32.809 20.2388 33.3048 18.599 32.5206 18.1018C31.7364 17.6046 31.2602 17.8952 31.2602 17.8952C31.2602 17.8952 31.5084 17.9599 31.7767 18.1671C32.0449 18.3742 32.1486 18.4131 32.1486 19.0553C32.1486 19.6975 31.9624 20.3615 31.0544 20.3822C30.1464 20.4029 29.3838 20.0306 29.0537 19.1605C28.7235 18.2903 28.496 17.3177 28.1039 16.2819C27.7118 15.246 26.8254 14.6033 26.8254 14.6033C26.8254 14.6033 27.0086 14.6214 27.5658 14.6214C28.123 14.6214 28.0641 15.5568 28.0641 15.5568C28.0641 15.5568 28.5372 15.4314 28.6817 15.245C28.8261 15.0585 28.7431 14.3531 28.7431 14.3531C28.7431 14.3531 28.8865 14.4148 29.0103 14.1247C29.1341 13.8347 28.6626 13.7326 29.0753 13.3597C29.4881 12.9868 29.323 13.0707 29.0753 12.6564C28.8277 12.2421 28.9515 12.4461 29.3642 12.4461C29.777 12.4461 29.7342 12.3229 29.1151 11.4528C28.496 10.5827 28.0002 10.8737 27.5874 11.0395C27.1747 11.2052 26.4731 10.8742 25.854 10.5428C25.2349 10.2113 25.319 10.2113 24.9475 10.2527C24.5761 10.2942 24.2046 10.2092 23.7919 9.9192C23.3791 9.62917 23.5834 9.79646 22.8818 9.00922C22.1801 8.22198 24.0808 8.30588 24.0808 8.30588C24.0808 8.30588 23.8316 7.1851 22.9649 6.52217C22.0981 5.85923 20.9858 6.10887 20.9858 6.10887C20.9858 6.10887 20.8615 5.23721 20.6138 4.98861C20.3662 4.74 19.7445 4.69857 19.0429 4.69857H17.5586C16.5268 4.69857 16.9803 4.45152 17.1866 4.07862C17.393 3.70572 16.7739 3.70416 16.3199 4.40854C15.8659 5.11291 15.579 4.49399 15.2076 4.24539C14.8361 3.99679 14.8743 4.61726 13.8425 3.78858C12.8106 2.95991 13.8425 2.00798 14.7092 1.92511C15.5759 1.84224 15.7421 2.87497 15.7421 2.87497C15.7421 2.87497 16.032 2.33841 15.9082 2.04837C15.7844 1.75834 15.7023 1.71483 15.7023 1.71483C15.7023 1.71483 16.0812 1.7018 16.6413 1.69671ZM12.3979 2.50518C12.3979 2.50518 12.0296 3.29138 12.6074 3.78858C13.1852 4.28579 13.68 4.69857 13.68 4.69857C13.68 4.69857 12.1518 4.41009 11.4915 4.36866C10.8311 4.32722 10.0046 4.2024 10.4586 3.7052C10.9126 3.208 10.9549 3.16501 11.2025 3.16501C11.4502 3.16501 11.9465 3.45504 11.9465 3.45504C11.9465 3.45504 11.9852 3.04123 11.8201 2.95836C11.655 2.87549 11.4517 2.79521 11.4517 2.79521L12.3979 2.50518ZM9.34629 3.91185C9.34629 3.91185 9.22195 4.61519 10.13 4.90522C11.038 5.19526 11.6973 5.48529 11.6973 5.48529C11.6973 5.48529 8.93098 5.5288 8.06424 6.10887C7.19751 6.68894 6.53869 7.22654 6.29105 7.68231C6.04341 8.13808 5.71323 8.92635 5.42431 9.00922C5.1354 9.09209 4.92904 9.21742 4.84649 8.88595C4.79819 8.69201 4.63619 8.49795 4.51063 8.51978C4.46525 8.58407 4.42135 8.65048 4.37701 8.71556C4.36257 8.78102 4.35173 8.86011 4.35173 8.96571C4.35173 9.71152 5.01261 10.2527 5.01261 10.2527C5.01261 10.2527 4.31046 11.0374 4.06282 11.576C3.81518 12.1147 3.52472 14.0227 3.52472 15.39C3.52472 16.7573 3.44321 18.2059 3.11302 18.6203C2.78284 19.0346 2.86538 19.2444 2.5352 19.3272L1.87431 19.4904C1.87431 19.4904 2.41189 20.1538 3.19608 20.1538C3.98027 20.1538 4.5973 19.3272 4.5973 19.3272C4.5973 19.3272 5.01004 20.6096 5.46404 21.314C5.91804 22.0183 6.66302 23.1774 6.66302 23.1774C6.66302 23.1774 6.58048 24.464 6.66302 25.2512C6.74557 26.0384 6.57996 26.8671 5.71323 26.4113C4.84649 25.9556 4.88622 26.5336 5.46404 26.9479C6.04186 27.3622 6.74557 27.4896 7.24084 27.1582C7.73612 26.8267 7.85891 26.3264 7.94146 25.7878C8.024 25.2491 7.98479 25.2103 8.2737 25.0445C8.56262 24.8788 9.26168 25.3346 9.30295 26.2047C9.34422 27.0748 9.42832 27.0328 9.55214 27.2814C9.67596 27.53 9.63571 27.6942 9.42935 27.9014C9.22298 28.1086 9.4278 28.4411 9.75799 28.0682C10.0882 27.6953 10.2548 27.5295 10.2961 27.1981C10.3374 26.8666 10.5417 26.5781 10.5417 26.5781C10.5417 26.5781 11.4909 26.9898 12.2751 27.0313C13.0593 27.0727 14.4224 27.9035 14.4636 28.815C14.5049 29.7265 13.7197 30.058 12.2751 30.2652C10.8306 30.4723 9.09916 30.1828 7.69588 29.4785C6.2926 28.7741 3.81312 26.4538 2.86384 23.6777C1.91456 20.9017 1.62719 18.829 1.66846 18.0003C1.70974 17.1716 1.74946 13.6917 2.86384 11.4129C3.44768 10.219 3.88592 9.43622 4.37701 8.71556C4.40488 8.5892 4.45198 8.52999 4.51063 8.51978C4.92195 7.93712 5.38275 7.37382 6.00214 6.64543C7.44669 4.94665 9.34629 3.91185 9.34629 3.91185ZM17.8981 7.43578C17.9459 7.4318 17.9922 7.43384 18.0425 7.43578C18.8473 7.46685 18.8293 7.74394 19.469 8.10648C20.1088 8.46903 20.5416 8.78082 20.5416 8.78082C20.5416 8.78082 19.8183 8.93723 19.2198 8.65755C18.6214 8.37787 18.1467 8.14999 17.8475 8.14999C17.5483 8.14999 16.7424 8.17899 16.7424 8.17899C16.7424 8.17899 17.1805 7.49552 17.8981 7.43578ZM19.1982 10.5464C19.5619 10.5435 19.9782 10.6244 20.4477 10.8328C22.5939 11.7858 22.3267 12.5917 23.6474 13.3996C24.9681 14.2076 25.4423 14.2915 25.4423 14.2915L25.5037 15.7417C25.5037 15.7417 23.9147 15.6997 22.1812 14.4981C20.4477 13.2966 20.1397 12.7377 19.3968 12.4063C18.6539 12.0748 17.2697 11.6195 17.2697 11.6195C17.2697 11.6195 17.8993 10.5567 19.1982 10.5464ZM25.0992 11.4056C25.7035 11.3858 26.0201 11.9712 26.0201 11.9712C26.0201 11.9712 25.4835 11.9909 25.1534 12.0945C24.8232 12.1981 24.5972 12.3446 24.5972 12.3446C24.5972 12.3446 24.0369 11.7014 24.8211 11.4528C24.9191 11.4217 25.0129 11.4085 25.0992 11.4056ZM26.4426 15.0528C26.4607 15.0514 26.4781 15.0522 26.4968 15.0528C26.5864 15.0554 26.6822 15.0778 26.7713 15.129C27.0087 15.2653 27.1135 15.5312 27.006 15.7199C26.8985 15.9086 26.6187 15.9505 26.3812 15.8142C26.1438 15.6778 26.039 15.4155 26.1465 15.2268C26.2053 15.1237 26.3161 15.0631 26.4426 15.0528Z" fill="#ECEFF3"/>
<defs>
<linearGradient id="paint0_linear" x1="16.8688" y1="1.11022" x2="16.8688" y2="27.6278" gradientUnits="userSpaceOnUse">
<stop stop-color="#FFE34A"/>
<stop offset="1" stop-color="#EA1A31"/>
</linearGradient>
</defs>
</svg>
